<svg id="visual" viewBox="0 0 960 540" width="960" height="540" xmlns="http://www.w3.org/2000/svg" xmlns:xlink="http://www.w3.org/1999/xlink" version="1.1"><rect x="0" y="0" width="960" height="540" fill="#d64747"></rect><g transform="translate(413.9110216612421 270.7281183727514)"><path d="M187.7 -261.8C269.9 -198.5 381.8 -179.5 424.7 -120.7C467.6 -61.9 441.6 36.6 404.7 125.7C367.8 214.9 320 294.7 250.7 352.7C181.4 410.7 90.7 446.9 20.9 418.1C-49 389.4 -98 295.8 -165.2 237.2C-232.4 178.5 -317.8 154.8 -314.7 114.1C-311.6 73.4 -220 15.9 -177 -39.3C-134 -94.4 -139.6 -147.1 -118.2 -230.2C-96.8 -313.2 -48.4 -426.6 2.2 -429.6C52.7 -432.5 105.4 -325.1 187.7 -261.8" fill="#FFFFFF"></path></g></svg>